HIERARCHY
ROOT root
{
  OFFSET 0 90.5966 0
  CHANNELS 6 Xposition Yposition Zposition Zrotation Xrotation Yrotation
  JOINT torso_1
  {
    OFFSET 0 4.93189 -1.1181
    CHANNELS 6 Xposition Yposition Zposition Zrotation Xrotation Yrotation
    JOINT torso_2
    {
      OFFSET 0 5.45428 1.04046
      CHANNELS 6 Xposition Yposition Zposition Zrotation Xrotation Yrotation
      JOINT torso_3
      {
        OFFSET -9.96389e-18 5.81666 0.111686
        CHANNELS 6 Xposition Yposition Zposition Zrotation Xrotation Yrotation
        JOINT torso_4
        {
          OFFSET -1.07264e-17 6.3178 -0.430704
          CHANNELS 6 Xposition Yposition Zposition Zrotation Xrotation Yrotation
          JOINT torso_5
          {
            OFFSET -1.91593e-17 7.38567 -1.4624
            CHANNELS 6 Xposition Yposition Zposition Zrotation Xrotation Yrotation
            JOINT torso_6
            {
              OFFSET -2.45986e-17 9.22288 -0.888062
              CHANNELS 6 Xposition Yposition Zposition Zrotation Xrotation Yrotation
              JOINT torso_7
              {
                OFFSET -2.82008e-17 10.2464 1.53133
                CHANNELS 6 Xposition Yposition Zposition Zrotation Xrotation Yrotation
                JOINT neck_1
                {
                  OFFSET -1.25459e-17 4.64811 0.694664
                  CHANNELS 6 Xposition Yposition Zposition Zrotation Xrotation Yrotation
                  JOINT neck_2
                  {
                    OFFSET -1.75924e-17 4.68175 0.4096
                    CHANNELS 6 Xposition Yposition Zposition Zrotation Xrotation Yrotation
                    JOINT head
                    {
                      OFFSET -1.9515e-17 4.6908 0.74295
                      CHANNELS 6 Xposition Yposition Zposition Zrotation Xrotation Yrotation
                      End Site
                      {
                        OFFSET 0 0.1 0
                      }
                    }
                  }
                }
                JOINT l_shoulder
                {
                  OFFSET 1.19736 -7.38744 7.31601
                  CHANNELS 6 Xposition Yposition Zposition Zrotation Xrotation Yrotation
                  JOINT l_up_arm
                  {
                    OFFSET 12.5803 3.15559 -3.17425
                    CHANNELS 6 Xposition Yposition Zposition Zrotation Xrotation Yrotation
                    JOINT l_low_arm
                    {
                      OFFSET 28.3639 0.0580795 0.133078
                      CHANNELS 6 Xposition Yposition Zposition Zrotation Xrotation Yrotation
                      JOINT l_hand
                      {
                        OFFSET 23.5335 0.0481878 0.110415
                        CHANNELS 6 Xposition Yposition Zposition Zrotation Xrotation Yrotation
                        End Site
                        {
                          OFFSET 0.1 0 0
                        }
                      }
                    }
                  }
                }
                JOINT r_shoulder
                {
                  OFFSET -1.19736 -7.38743 7.31591
                  CHANNELS 6 Xposition Yposition Zposition Zrotation Xrotation Yrotation
                  JOINT r_up_arm
                  {
                    OFFSET -12.5803 3.15559 -3.17425
                    CHANNELS 6 Xposition Yposition Zposition Zrotation Xrotation Yrotation
                    JOINT r_low_arm
                    {
                      OFFSET -28.3639 0.0580795 0.133078
                      CHANNELS 6 Xposition Yposition Zposition Zrotation Xrotation Yrotation
                      JOINT r_hand
                      {
                        OFFSET -23.5335 0.0481876 0.110415
                        CHANNELS 6 Xposition Yposition Zposition Zrotation Xrotation Yrotation
                        End Site
                        {
                          OFFSET -0.1 0 0
                        }
                      }
                    }
                  }
                }
              }
            }
          }
        }
      }
    }
  }
  JOINT l_up_leg
  {
    OFFSET 8.96978 -4.08401 1.97395
    CHANNELS 6 Xposition Yposition Zposition Zrotation Xrotation Yrotation
    JOINT l_low_leg
    {
      OFFSET -0.827718 -37.6515 -0.63625
      CHANNELS 6 Xposition Yposition Zposition Zrotation Xrotation Yrotation
      JOINT l_foot
      {
        OFFSET -2.25899 -39.2341 -5.87393
        CHANNELS 6 Xposition Yposition Zposition Zrotation Xrotation Yrotation
        JOINT l_toes
        {
          OFFSET 0.756579 -9.59872 12.1348
          CHANNELS 6 Xposition Yposition Zposition Zrotation Xrotation Yrotation
          End Site
          {
            OFFSET 0 0 0.1
          }
        }
      }
    }
  }
  JOINT r_up_leg
  {
    OFFSET -8.96978 -4.08401 1.97395
    CHANNELS 6 Xposition Yposition Zposition Zrotation Xrotation Yrotation
    JOINT r_low_leg
    {
      OFFSET 0.827718 -37.6515 -0.63625
      CHANNELS 6 Xposition Yposition Zposition Zrotation Xrotation Yrotation
      JOINT r_foot
      {
        OFFSET 2.25899 -39.2341 -5.87393
        CHANNELS 6 Xposition Yposition Zposition Zrotation Xrotation Yrotation
        JOINT r_toes
        {
          OFFSET -0.756579 -9.59872 12.1348
          CHANNELS 6 Xposition Yposition Zposition Zrotation Xrotation Yrotation
          End Site
          {
            OFFSET 0 0 0.1
          }
        }
      }
    }
  }
}
MOTION
Frames: 4
Frame Time: 0.020000
-14.3384 89.7343 -1.41743 -0.527108 5.44647 2.18403 0 4.93189 -1.1181 0.294389 -1.37632 1.08547 0 5.45428 1.04046 0.127401 -1.04379 1.11741 -9.96389e-18 5.81666 0.111686 0.100586 -0.331814 1.18089 -1.07264e-17 6.3178 -0.430704 0.0365313 0.615031 1.26955 -1.91593e-17 7.38567 -1.4624 0.239001 0.478355 1.11772 -2.45986e-17 9.22288 -0.888062 0.497066 0.157281 0.945735 -2.82008e-17 10.2464 1.53133 -0.00460855 0.0880044 -0.0152971 -1.25459e-17 4.64811 0.694664 -0.409476 5.20196 -2.7685 -1.75924e-17 4.68175 0.4096 -0.877846 -2.69299 -1.30372 -1.9515e-17 4.6908 0.74295 -0.250966 -2.01055 -1.33161 1.19736 -7.38744 7.31601 18.8666 -5.7191 4.57809 12.5803 3.15559 -3.17425 -57.865 -51.8199 -65.876 28.3639 0.0580795 0.133078 10.1747 -5.59644 -58.1283 23.5335 0.0481878 0.110415 1.03397 12.2196 0.356192 -1.19736 -7.38743 7.31591 -20.6927 -4.68854 -3.15127 -12.5803 3.15559 -3.17425 68.207 -41.9562 66.2816 -28.3639 0.0580795 0.133078 -10.896 -6.91184 65.2772 -23.5335 0.0481876 0.110415 -4.05231 -11.9769 -0.592469 8.96978 -4.08401 1.97395 3.82004 -7.23297 -12.1022 -0.827718 -37.6515 -0.63625 -1.09916 4.10449 -0.0322812 -2.25899 -39.2341 -5.87393 -1.93679 -5.98951 15.6088 0.756579 -9.59872 12.1348 4.96962e-17 -7.95139e-16 1.2424e-17 -8.96978 -4.08401 1.97395 -2.01462 -6.07757 18.9648 0.827718 -37.6515 -0.63625 0.9901 3.69756 0.0325994 2.25899 -39.2341 -5.87393 0.0877218 -5.57095 -15.3974 -0.756579 -9.59872 12.1348 -9.93923e-16 -5.46658e-16 -1.27222e-14 
-14.2961 89.7276 -1.26859 -0.542225 5.44649 2.22705 0 4.93189 -1.1181 0.284765 -1.42719 1.07511 0 5.45428 1.04046 0.118076 -1.06953 1.10696 -9.96389e-18 5.81666 0.111686 0.0901587 -0.335047 1.16802 -1.07264e-17 6.3178 -0.430704 0.025461 0.657784 1.25243 -1.91593e-17 7.38567 -1.4624 0.227443 0.538384 1.10754 -2.45986e-17 9.22288 -0.888062 0.485287 0.223746 0.937461 -2.82008e-17 10.2464 1.53133 -0.00495701 0.0844881 -0.0151978 -1.25459e-17 4.64811 0.694664 -0.418416 4.75928 -2.68722 -1.75924e-17 4.68175 0.4096 -0.902405 -2.6646 -1.26804 -1.9515e-17 4.6908 0.74295 -0.179702 -1.77612 -1.39756 1.19736 -7.38744 7.31601 18.683 -5.78554 4.28459 12.5803 3.15559 -3.17425 -57.8595 -52.4048 -66.7236 28.3639 0.0580795 0.133078 10.133 -5.53094 -57.7586 23.5335 0.0481878 0.110415 1.02144 12.4857 0.361848 -1.19736 -7.38743 7.31591 -20.4313 -4.73661 -2.81628 -12.5803 3.15559 -3.17425 68.2677 -42.4815 67.1143 -28.3639 0.0580795 0.133078 -10.8578 -6.83129 64.8525 -23.5335 0.0481876 0.110415 -4.06042 -12.1179 -0.758468 8.96978 -4.08401 1.97395 3.81729 -7.10361 -12.1496 -0.827718 -37.6515 -0.63625 -1.08258 4.04265 -0.0323795 -2.25899 -39.2341 -5.87393 -1.94691 -6.05243 15.6007 0.756579 -9.59872 12.1348 4.4619e-16 -7.82748e-16 3.36201e-20 -8.96978 -4.08401 1.97395 -2.03882 -5.8932 18.9261 0.827718 -37.6515 -0.63625 0.953377 3.56049 0.0325317 2.25899 -39.2341 -5.87393 0.0529814 -5.57363 -15.3917 -0.756579 -9.59872 12.1348 -5.9743e-16 -5.59048e-16 -1.2747e-14 
-14.2516 89.7391 -1.11304 -0.540788 5.58565 2.27495 0 4.93189 -1.1181 0.268848 -1.51156 1.06927 0 5.45428 1.04046 0.103616 -1.12416 1.09962 -9.96389e-18 5.81666 0.111686 0.0763419 -0.357944 1.15878 -1.07264e-17 6.3178 -0.430704 0.0125821 0.691719 1.23965 -1.91593e-17 7.38567 -1.4624 0.216615 0.601071 1.10086 -2.45986e-17 9.22288 -0.888062 0.476652 0.299678 0.93143 -2.82008e-17 10.2464 1.53133 -0.00517714 0.0813626 -0.0151329 -1.25459e-17 4.64811 0.694664 -0.423174 4.37029 -2.63023 -1.75924e-17 4.68175 0.4096 -0.912922 -2.65742 -1.2436 -1.9515e-17 4.6908 0.74295 -0.123605 -1.61566 -1.4431 1.19736 -7.38744 7.31601 18.5239 -5.85167 4.07328 12.5803 3.15559 -3.17425 -57.9106 -52.8208 -67.4825 28.3639 0.0580795 0.133078 10.1178 -5.50725 -57.6245 23.5335 0.0481878 0.110415 1.04046 12.7838 0.457202 -1.19736 -7.38743 7.31591 -20.2011 -4.78519 -2.56587 -12.5803 3.15559 -3.17425 68.3882 -42.864 67.8749 -28.3639 0.0580795 0.133078 -10.8284 -6.7704 64.5305 -23.5335 0.0481876 0.110415 -4.119 -12.1604 -0.88505 8.96978 -4.08401 1.97395 3.78551 -7.07844 -12.1811 -0.827718 -37.6515 -0.63625 -1.04702 3.90995 -0.03253 -2.25899 -39.2341 -5.87393 -1.97077 -6.02598 15.5953 0.756579 -9.59872 12.1348 5.0772e-17 -7.95105e-16 1.23904e-17 -8.96978 -4.08401 1.97395 -2.09073 -5.84152 18.9167 0.827718 -37.6515 -0.63625 0.912724 3.40873 0.032354 2.25899 -39.2341 -5.87393 0.0574995 -5.53375 -15.3885 -0.756579 -9.59872 12.1348 -9.92847e-16 -5.46691e-16 -1.27223e-14 
-14.2046 89.7643 -0.959235 -0.581035 5.61629 2.33503 0 4.93189 -1.1181 0.276242 -1.59228 1.06125 0 5.45428 1.04046 0.110445 -1.17495 1.09323 -9.96389e-18 5.81666 0.111686 0.079592 -0.37716 1.15081 -1.07264e-17 6.3178 -0.430704 0.0122997 0.729104 1.22865 -1.91593e-17 7.38567 -1.4624 0.211593 0.667039 1.09354 -2.45986e-17 9.22288 -0.888062 0.468329 0.380566 0.925912 -2.82008e-17 10.2464 1.53133 -0.00538314 0.0783745 -0.0149454 -1.25459e-17 4.64811 0.694664 -0.426695 4.03796 -2.55369 -1.75924e-17 4.68175 0.4096 -0.927562 -2.62251 -1.20956 -1.9515e-17 4.6908 0.74295 -0.0685815 -1.41746 -1.51367 1.19736 -7.38744 7.31601 18.3503 -5.92068 3.84659 12.5803 3.15559 -3.17425 -57.9938 -53.1002 -68.1727 28.3639 0.0580795 0.133078 10.0936 -5.46982 -57.4122 23.5335 0.0481878 0.110415 1.04828 13.0607 0.403399 -1.19736 -7.38743 7.31591 -19.9827 -4.83138 -2.30698 -12.5803 3.15559 -3.17425 68.3897 -43.2109 68.4724 -28.3639 0.0580795 0.133078 -10.7964 -6.70506 64.184 -23.5335 0.0481876 0.110415 -4.14933 -12.1642 -0.920725 8.96978 -4.08401 1.97395 3.8022 -6.9674 -12.2383 -0.827718 -37.6515 -0.63625 -1.01769 3.80054 -0.0325919 -2.25899 -39.2341 -5.87393 -2.00652 -5.96668 15.5871 0.756579 -9.59872 12.1348 4.96962e-17 -7.95139e-16 1.2424e-17 -8.96978 -4.08401 1.97395 -2.09605 -5.67072 18.8256 0.827718 -37.6515 -0.63625 0.861731 3.21834 0.0319787 2.25899 -39.2341 -5.87393 0.0907121 -5.39114 -15.3816 -0.756579 -9.59872 12.1348 -5.97435e-16 -5.59048e-16 -1.2747e-14 
